<?xml version="1.0" encoding="utf-8"?><!-- Generator: Adobe Illustrator 24.0.1, SVG Export Plug-In . SVG Version: 6.00 Build 0)  -->
<svg version="1.1" id="Layer_1" xmlns="http://www.w3.org/2000/svg"
    xmlns:xlink="http://www.w3.org/1999/xlink" x="0px" y="0px" viewBox="0 0 800 800"
    style="enable-background:new 0 0 800 800;" xml:space="preserve">
<style type="text/css">
	.st0{fill:#ffffff;}
</style>
    <path class="st0" d="M618.3,211.6c46.8,61.6,42.1,149.8-14.1,206l-55.6,55.6c-8.4,8.4-21.9,8.4-30.3,0L326.3,281.3
	c-8.4-8.4-8.4-21.9,0-30.3l55.6-55.6c56.2-56.2,144.5-60.9,206.1-14.1l87-87c8.4-8.4,21.9-8.4,30.3,0c8.4,8.4,8.4,21.9,0,30.3
	L618.3,211.6z" />
    <path class="st0" d="M396.4,318.8c8.4-8.4,8.4-21.9,0-30.3c-8.4-8.4-21.9-8.4-30.3,0l-60.8,60.8l-23.5-23.5
	c-8.4-8.4-21.9-8.4-30.3,0L196,381.3c-56.2,56.2-60.9,144.5-14.1,206l-87,87c-8.4,8.4-8.4,21.9,0,30.3c8.4,8.4,21.9,8.4,30.3,0
	l87-87c61.6,46.8,149.8,42.1,206.1-14.1l55.6-55.6c8.4-8.4,8.4-21.9,0-30.3l-23.6-23.6l60.7-60.7c8.4-8.4,8.4-21.9,0-30.3
	c-8.4-8.4-21.9-8.4-30.3,0l-60.7,60.7l-84.2-84.2L396.4,318.8z" />
</svg>
